:SAMPLES-PER-SECOND 30
:FULLY-SPECIFIED
:DEGREES
508
root  3.24852 39.8792 -0.222901 -175.287 19.2713 175.831
RightUpLeg  -17.7364 -44.3034 -1.53655
RightLeg  18.6044 -0.641618 -0.436921
RightFoot  -3.58074 -0.127383 1.53672
RightToes  -6.40286e-010 0 -3.6325e-017
Spine  16.8777 6.6802 13.2163
Spine1  2.40123 12.2386 -16.414
HEad  -26.0232 -32.6933 9.35124
LeftShoulder1  0.114692 3.1932 -30.7937
LeftArm  11.4809 5.28961 -42.6364
LeftForeArm  22.1536 -26.9088 -4.59653
LeftHand  -0.0194475 6.03676 2.09141
RightShoulder  0.439923 -1.91477 21.772
RightArm  29.091 50.7413 62.3519
RightForeArm  21.7256 35.8352 6.80544
RightHand  -0.15195 4.39652 -2.09388
LeftUpLeg  -10.7532 4.46118 -2.494
LeftLeg  4.28937 7.9028 -1.53173
LeftFoot  1.97613 -0.562203 4.71091
LeftToes  1.32783e-010 1.73515e-011 1.59258e-011
509
root  3.312 39.943 -0.365479 -175.837 22.4837 175.886
RightUpLeg  -18.3064 -47.0508 0.165621
RightLeg  17.4732 -4.10911 -1.16289
RightFoot  -2.79309 0.00657885 -0.352411
RightToes  -6.40286e-010 0 -3.6325e-017
Spine  16.3182 6.51893 12.6266
Spine1  2.95932 11.7882 -15.3687
HEad  -26.1648 -33.2567 10.3111
LeftShoulder1  0.110132 3.20696 -31.0231
LeftArm  11.5191 5.61968 -42.4252
LeftForeArm  22.1489 -26.1636 -4.43322
LeftHand  -0.0243951 6.19047 1.31196
RightShoulder  0.33578 -2.33058 22.9365
RightArm  34.168 47.1796 64.1468
RightForeArm  23.9766 38.1043 7.2981
RightHand  -0.144535 4.85749 -1.90371
LeftUpLeg  -9.29662 4.82784 -2.14078
LeftLeg  3.5231 10.7226 -1.4663
LeftFoot  1.86041 -0.535952 4.53036
LeftToes  1.32783e-010 1.73515e-011 1.59258e-011
510
root  3.39922 39.9713 -0.536147 -176.348 26.3598 175.669
RightUpLeg  -17.6538 -45.3605 0.135415
RightLeg  16.1352 -9.69082 -1.18198
RightFoot  -2.71501 0.10869 -1.68897
RightToes  -6.40286e-010 0 -3.6325e-017
Spine  15.5472 6.34138 11.913
Spine1  3.33116 11.4045 -15.0604
HEad  -25.7749 -33.12 10.7709
LeftShoulder1  0.0404613 3.39538 -31.1871
LeftArm  11.1611 6.21415 -42.0822
LeftForeArm  22.1472 -25.6153 -4.31462
LeftHand  -0.0253956 6.37336 1.08204
RightShoulder  0.254521 -2.64358 24.2511
RightArm  38.1844 42.3104 65.3917
RightForeArm  20.0613 38.4911 7.65931
RightHand  -0.316249 6.07858 -3.54479
LeftUpLeg  -8.00457 4.99908 -2.04383
LeftLeg  3.00747 14.1912 -1.2676
LeftFoot  1.47456 -0.456956 3.98866
LeftToes  1.32783e-010 1.73515e-011 1.59258e-011
511
root  3.53434 39.9832 -0.726885 -177.119 30.3104 175.286
RightUpLeg  -15.8871 -40.4668 -1.28138
RightLeg  14.9481 -15.7939 -0.715829
RightFoot  -3.04633 0.171398 -2.65022
RightToes  -6.40286e-010 0 -3.6325e-017
Spine  14.9133 6.09175 11.3043
Spine1  3.52071 10.9895 -14.9461
HEad  -24.822 -33.1904 10.6663
LeftShoulder1  0.0526695 3.36174 -30.9163
LeftArm  10.5659 6.96568 -42.0729
LeftForeArm  21.7465 -24.7883 -4.15789
LeftHand  -0.0271058 6.4922 1.29377
RightShoulder  0.164082 -2.96034 25.5741
RightArm  41.2087 36.7355 65.2033
RightForeArm  17.4418 38.1215 7.7154
RightHand  -0.363009 7.07177 -3.7319
LeftUpLeg  -6.57442 5.29732 -2.01434
LeftLeg  2.70439 17.7744 -1.24973
LeftFoot  0.996205 -0.388698 3.53883
LeftToes  1.32783e-010 1.73515e-011 1.59258e-011
512
root  3.71704 39.9801 -0.949847 -177.876 34.3428 174.807
RightUpLeg  -14.2789 -33.8346 -2.76025
RightLeg  14.0264 -20.0992 -0.23878
RightFoot  -3.66256 0.222103 -3.66951
RightToes  -6.40286e-010 0 -3.6325e-017
Spine  13.78 5.79868 10.8534
Spine1  4.13163 10.5274 -14.6707
HEad  -23.4986 -32.6785 9.73271
LeftShoulder1  -0.00689292 3.52212 -31.0585
LeftArm  10.5734 7.5557 -41.8626
LeftForeArm  20.8816 -24.2657 -4.09039
LeftHand  -0.0241129 6.40661 1.04232
RightShoulder  0.0594987 -3.29616 26.5703
RightArm  43.9636 30.8757 64.5258
RightForeArm  16.2851 36.1265 7.21853
RightHand  -0.378398 6.91927 -3.91456
LeftUpLeg  -5.24483 5.54168 -2.02088
LeftLeg  2.65189 21.4626 -1.19149
LeftFoot  0.324642 -0.286134 2.77837
LeftToes  1.32783e-010 1.73515e-011 1.59258e-011
513
root  4.01218 39.9602 -1.16164 -178.703 38.2595 174.464
RightUpLeg  -12.8933 -28.5377 -3.37312
RightLeg  13.1429 -21.0739 0.00796298
RightFoot  -4.63203 0.183778 -3.66622
RightToes  -6.40286e-010 0 -3.6325e-017
Spine  12.6144 5.57975 9.9194
Spine1  4.62467 9.87575 -13.5012
HEad  -22.5728 -31.804 8.85302
LeftShoulder1  -0.0523532 3.64274 -31.6209
LeftArm  11.2479 8.00939 -41.2693
LeftForeArm  20.041 -23.7191 -4.03791
LeftHand  -0.0200576 6.80461 1.27388
RightShoulder  -0.00635139 -3.49342 27.359
RightArm  46.8465 25.2394 62.9595
RightForeArm  13.5 31.8007 6.15902
RightHand  -0.364507 6.947 -3.77511
LeftUpLeg  -3.90503 6.14482 -1.67268
LeftLeg  3.09379 24.5573 -1.15834
LeftFoot  -0.566276 -0.180505 1.95352
LeftToes  1.32783e-010 1.73515e-011 1.59258e-011
514
root  4.30631 39.9619 -1.37631 -179.314 42.491 174.517
RightUpLeg  -12.0423 -23.7577 -3.2749
RightLeg  12.7737 -21.5373 -0.0894915
RightFoot  -4.55493 0.196261 -3.82486
RightToes  -6.40286e-010 0 -3.6325e-017
Spine  11.6309 5.14206 10.4162
Spine1  5.14672 9.43913 -13.5969
HEad  -21.9857 -30.4121 8.15013
LeftShoulder1  -0.101996 3.77392 -31.635
LeftArm  11.5667 8.3104 -41.0799
LeftForeArm  20.0029 -23.0431 -3.99457
LeftHand  -0.0167582 6.7347 1.49791
RightShoulder  -0.149421 -3.91072 28.3041
RightArm  48.6339 20.2878 61.4639
RightForeArm  8.93787 25.062 5.42691
RightHand  -0.29541 5.32673 -3.50876
LeftUpLeg  -2.66075 6.84027 -1.05762
LeftLeg  3.94267 27.9394 -0.84933
LeftFoot  -1.45741 -0.0943084 1.18751
LeftToes  1.32783e-010 1.73515e-011 1.59258e-011
515
root  4.68233 39.9641 -1.57189 -179.933 46.9284 174.592
RightUpLeg  -11.2369 -20.602 -2.80649
RightLeg  12.4557 -20.1812 0.0123441
RightFoot  -4.45179 0.222557 -4.19474
RightToes  -6.40286e-010 0 -3.6325e-017
Spine  10.6258 4.81696 10.5278
Spine1  5.65844 8.94963 -13.1311
HEad  -21.6903 -28.7337 7.97549
LeftShoulder1  -0.130434 3.84919 -31.6533
LeftArm  10.1883 9.07689 -41.0103
LeftForeArm  21.6013 -22.7245 -3.94757
LeftHand  -0.031011 6.40828 0.41581
RightShoulder  -0.209771 -4.08201 28.4446
RightArm  40.3203 16.1903 59.9265
RightForeArm  11.1406 15.6534 7.88459
RightHand  -0.267415 4.19734 -3.51309
LeftUpLeg  -1.21426 7.77562 -0.176811
LeftLeg  4.8287 31.1143 -0.715586
LeftFoot  -2.27079 0.01791 -0.0453826
LeftToes  1.32783e-010 1.73515e-011 1.59258e-011
516
root  5.13565 39.9478 -1.71841 179.359 51.4633 174.362
RightUpLeg  -10.5245 -17.6148 -2.33262
RightLeg  12.2506 -18.5534 0.0757135
RightFoot  -4.78678 0.221325 -4.42593
RightToes  -6.40286e-010 0 -3.6325e-017
Spine  9.56162 4.61331 9.96543
Spine1  6.07963 8.42801 -12.2298
HEad  -21.4301 -26.6881 7.46793
LeftShoulder1  -0.162242 3.93559 -31.413
LeftArm  10.134 9.75331 -40.9326
LeftForeArm  20.6038 -22.5189 -4.02357
LeftHand  -0.0275495 7.06725 0.68642
RightShoulder  -0.235477 -4.15299 28.5772
RightArm  22.3745 13.246 57.4353
RightForeArm  21.5232 4.78308 11.3054
RightHand  -0.287949 3.49054 -4.01578
LeftUpLeg  -0.0929355 9.16256 0.825461
LeftLeg  6.63907 33.3743 -0.35039
LeftFoot  -2.90115 0.139427 -1.66857
LeftToes  1.32783e-010 1.73515e-011 1.59258e-011
517
root  5.67204 39.9046 -1.79796 178.406 56.1202 174.294
RightUpLeg  -9.31792 -14.6857 -1.65339
RightLeg  12.1229 -16.8056 0.0669339
RightFoot  -5.39372 0.199006 -4.52666
RightToes  -6.40286e-010 0 -3.6325e-017
Spine  9.4154 4.50687 9.15511
Spine1  5.80998 7.94321 -11.0297
HEad  -21.0235 -24.544 7.70217
LeftShoulder1  -0.239571 4.13749 -31.6837
LeftArm  9.86138 10.5706 -40.1469
LeftForeArm  20.4802 -23.0266 -3.97003
LeftHand  -0.0189272 7.29579 1.18211
RightShoulder  -0.147495 -3.91183 27.7314
RightArm  18.2464 9.58723 55.8194
RightForeArm  23.9389 -0.805355 10.2954
RightHand  -0.285314 2.39144 -4.43711
LeftUpLeg  0.864362 14.1345 2.3951
LeftLeg  10.303 31.6814 1.38436
LeftFoot  -3.59407 0.3417 -4.73773
LeftToes  1.32783e-010 1.73515e-011 1.59258e-011
518
root  6.22783 39.8294 -1.86968 178.043 60.3168 174.941
RightUpLeg  -8.07495 -12.1713 -0.773221
RightLeg  12.3609 -15.6642 0.314298
RightFoot  -5.98603 0.178714 -4.68448
RightToes  -6.40286e-010 0 -3.6325e-017
Spine  9.01938 4.19727 10.3103
Spine1  6.2239 7.86827 -11.4458
HEad  -20.8818 -23.1906 8.22666
LeftShoulder1  -0.195763 4.02401 -31.5119
LeftArm  9.72383 10.6837 -39.2711
LeftForeArm  21.185 -23.6513 -3.96502
LeftHand  -0.0339488 7.08059 0.30351
RightShoulder  -0.139662 -3.89598 27.0592
RightArm  17.3832 6.22434 54.4998
RightForeArm  26.6924 -2.75973 9.94828
RightHand  -0.186995 0.545015 -3.74072
LeftUpLeg  0.838928 24.6054 4.3316
LeftLeg  15.6104 22.7597 4.90839
LeftFoot  -3.96265 0.518627 -7.58743
LeftToes  1.32783e-010 1.73515e-011 1.59258e-011
519
root  6.7505 39.6768 -1.88052 177.933 64.6081 175.145
RightUpLeg  -7.96209 -10.7371 0.169512
RightLeg  13.5342 -12.8198 0.261973
RightFoot  -7.2076 0.130184 -4.95159
RightToes  -6.40286e-010 0 -3.6325e-017
Spine  8.61969 3.94876 11.0653
Spine1  6.14865 7.83109 -11.9936
HEad  -20.9084 -21.9815 8.91267
LeftShoulder1  -0.216431 4.08018 -31.4219
LeftArm  8.77624 10.906 -38.2044
LeftForeArm  21.2565 -24.6059 -4.14299
LeftHand  -0.0246386 7.02676 0.84002
RightShoulder  -0.0979572 -3.7757 26.57
RightArm  17.1101 2.60769 53.4585
RightForeArm  23.4854 -2.54171 9.7866
RightHand  -0.186441 0.890502 -3.54864
LeftUpLeg  -1.70295 27.9038 5.09272
LeftLeg  23.5353 18.6851 9.34166
LeftFoot  -2.77057 0.635339 -8.3586
LeftToes  1.32783e-010 1.73515e-011 1.59258e-011
520
root  7.25729 39.5045 -1.86024 177.75 68.0487 175.775
RightUpLeg  -7.34081 -9.73492 1.06253
RightLeg  14.9746 -10.6353 0.175467
RightFoot  -8.51318 0.0728959 -5.28218
RightToes  -6.40286e-010 0 -3.6325e-017
Spine  9.07805 3.51409 11.8074
Spine1  5.92324 7.58667 -12.0232
HEad  -21.1145 -20.727 9.24551
LeftShoulder1  -0.234873 4.12913 -31.4341
LeftArm  7.08192 10.8628 -37.7895
LeftForeArm  22.3185 -25.6031 -4.30237
LeftHand  -0.00669879 7.30424 1.89623
RightShoulder  -0.136748 -3.89555 26.4514
RightArm  16.5952 -0.81881 52.8382
RightForeArm  19.7584 -0.989001 9.40488
RightHand  -0.230767 2.06374 -3.77421
LeftUpLeg  -4.87324 22.586 5.76506
LeftLeg  33.1067 18.8245 13.0922
LeftFoot  1.33749 0.305183 -3.09898
LeftToes  1.32783e-010 1.73515e-011 1.59258e-011
521
root  7.71201 39.2826 -1.86457 178.23 71.2352 176.947
RightUpLeg  -7.08835 -9.27614 1.98324
RightLeg  16.9577 -8.13862 0.122711
RightFoot  -10.1355 -0.00919451 -5.62571
RightToes  -6.40286e-010 0 -3.6325e-017
Spine  9.31802 3.06781 12.9889
Spine1  6.02591 7.45358 -12.1342
HEad  -21.7074 -19.4205 9.44145
LeftShoulder1  -0.25282 4.18085 -31.2411
LeftArm  5.25858 10.421 -38.0449
LeftForeArm  22.7694 -26.1392 -4.39469
LeftHand  -0.00291109 6.76707 2.55234
RightShoulder  -0.228088 -4.15943 27.0625
RightArm  16.2102 -3.34475 52.2484
RightForeArm  18.1357 1.51713 9.02233
RightHand  -0.192783 2.2257 -3.13124
LeftUpLeg  -8.29142 17.4798 6.3246
LeftLeg  40.9725 13.5779 12.5057
LeftFoot  5.38176 -0.271563 1.76982
LeftToes  1.32783e-010 1.73515e-011 1.59258e-011
522
root  8.21505 39.1361 -1.91105 177.904 74.366 177.451
RightUpLeg  -6.03111 -8.62698 2.41807
RightLeg  18.0415 -5.61362 0.290198
RightFoot  -11.4194 -0.0807093 -5.91025
RightToes  -6.40286e-010 0 -3.6325e-017
Spine  9.75867 2.82705 13.31
Spine1  6.17792 7.2748 -11.2595
HEad  -21.9971 -18.2508 9.24269
LeftShoulder1  -0.35343 4.43753 -31.6161
LeftArm  3.29663 10.1752 -38.7001
LeftForeArm  23.3092 -27.0301 -4.56255
LeftHand  0.0030774 6.9414 2.76818
RightShoulder  -0.375091 -4.56297 28.3908
RightArm  15.269 -4.69554 51.0402
RightForeArm  15.1293 3.87188 8.4137
RightHand  -0.115657 3.20855 -1.75348
LeftUpLeg  -10.6796 12.9015 6.34714
LeftLeg  45.456 2.95926 3.64489
LeftFoot  3.5592 -0.0708554 0.32994
LeftToes  1.32783e-010 1.73515e-011 1.59258e-011
